PathFileType	3	(X/Y/Z)	C:\Users\jcho911\Documents\Smart Splint MAP workflow\data\P09\mocap\P09EMGstatic01.trc
DataRate	CameraRate	NumFrames	NumMarkers	Units	OrigDataRate	OrigDataStartFrame	OrigNumFrames
200.0	200.0	5	37	mm	200.0	125	995	
Frame#	Time	LAS1			RAS1			LPS1			RPS1			RTH1			RTH2			RTH3			RLFC			RMFC			LTH1			LTH2			LTH3			LLFC			LMFC			LTB1			LTB2			LTB3			LLMAL			LMMAL			LToe			LMT1			LCAL			LMT5			RToe			RMT5			RMT1			RCAL			RTB1			RTB2			RTB3			RMMAL			RLMAL			T10			RACR1			CLAV			C7			LACR1			
		X1	Y1	Z1	X2	Y2	Z2	X3	Y3	Z3	X4	Y4	Z4	X5	Y5	Z5	X6	Y6	Z6	X7	Y7	Z7	X8	Y8	Z8	X9	Y9	Z9	X10	Y10	Z10	X11	Y11	Z11	X12	Y12	Z12	X13	Y13	Z13	X14	Y14	Z14	X15	Y15	Z15	X16	Y16	Z16	X17	Y17	Z17	X18	Y18	Z18	X19	Y19	Z19	X20	Y20	Z20	X21	Y21	Z21	X22	Y22	Z22	X23	Y23	Z23	X24	Y24	Z24	X25	Y25	Z25	X26	Y26	Z26	X27	Y27	Z27	X28	Y28	Z28	X29	Y29	Z29	X30	Y30	Z30	X31	Y31	Z31	X32	Y32	Z32	X33	Y33	Z33	X34	Y34	Z34	X35	Y35	Z35	X36	Y36	Z36	X37	Y37	Z37	
125	0.615	330.34503	1040.2501	-818.33643	596.41919	1031.8973	-818.07715	418.34698	1094.1484	-634.71954	513.94495	1093.3201	-630.66119	674.23883	781.48096	-724.7887	636.80859	680.87909	-797.24817	657.08368	611.21899	-690.67908	650.3454	525.13568	-696.89343	539.34369	511.39951	-723.13031	271.56189	685.45557	-740.2851	295.10712	759.409	-822.80261	333.64273	625.21082	-793.8515	297.11469	526.89233	-717.6496	398.47852	516.78424	-746.1712	271.31992	318.10886	-685.58282	272.82687	403.23795	-649.53326	295.64786	224.38499	-620.10828	286.92996	89.909454	-641.12451	372.58115	90.120216	-681.74426	258.44571	29.744154	-851.16327	322.82947	24.175943	-818.12457	337.41949	40.783104	-588.65039	218.81061	27.704473	-768.77637	667.24567	33.409798	-841.36127	716.0661	29.755396	-768.95239	607.0766	25.193378	-809.39691	623.32251	48.489445	-579.65137	680.43475	326.95364	-624.64825	640.81628	403.17474	-720.37775	674.33636	205.9066	-659.94678	575.65271	94.854797	-660.46069	671.23444	84.260536	-635.0697	460.55585	1334.6147	-613.35394	687.68744	1524.077	-713.67755	456.80984	1469.9335	-823.92633	471.99881	1588.0503	-659.43927	236.14352	1532.9231	-737.44281
126	0.62	330.33658	1040.2427	-818.29443	596.4198	1031.9004	-818.07581	418.33829	1094.1306	-634.72687	513.94342	1093.3209	-630.68677	674.22528	781.44702	-724.70844	636.8089	680.88678	-797.26624	656.9798	611.19055	-690.6626	650.36395	525.12573	-696.89539	539.34363	511.37192	-723.08234	271.56015	685.45386	-740.29968	295.11749	759.41376	-822.84448	333.64703	625.21411	-793.83044	297.11209	526.86755	-717.65509	398.41022	516.76135	-746.12726	271.3541	318.05872	-685.54095	272.83005	403.25125	-649.57727	295.66565	224.36536	-620.13947	286.93689	89.897804	-641.12445	372.57587	90.099403	-681.74091	258.45218	29.742367	-851.18011	322.84015	24.188375	-818.08807	337.38925	40.797295	-588.60406	218.82022	27.704983	-768.78918	667.2619	33.41106	-841.36279	716.03479	29.718201	-768.97772	607.07758	25.197922	-809.39117	623.32361	48.50679	-579.65833	680.45007	326.91864	-624.64862	640.93561	403.03372	-720.41168	674.3161	205.92152	-659.96362	575.6651	94.852867	-660.46545	671.23639	84.259392	-635.06866	460.55612	1334.5621	-613.35645	687.75458	1524.1063	-713.64923	456.84464	1469.9191	-823.93018	471.9996	1588.0514	-659.44025	236.14	1532.9205	-737.44421
127	0.625	330.3624	1040.2452	-818.32324	596.41907	1031.8981	-818.07666	418.31436	1094.0769	-634.74591	513.98621	1093.3253	-630.58813	674.19714	781.42035	-724.80023	636.76892	680.86285	-797.24487	656.98962	611.20844	-690.64996	650.34821	525.12177	-696.90503	539.3396	511.40649	-723.13452	271.56577	685.43817	-740.29401	295.0849	759.41534	-822.82111	333.64639	625.21411	-793.83228	297.14899	526.86487	-717.67688	398.41614	516.78546	-746.11505	271.4205	318.06024	-685.57123	272.8645	403.23944	-649.60724	295.67508	224.37488	-620.16943	286.94238	89.8862	-641.12134	372.55966	90.074936	-681.73889	258.45023	29.732798	-851.18579	322.83258	24.16345	-818.10199	337.4335	40.797634	-588.59454	218.8246	27.716993	-768.78778	667.26398	33.417522	-841.38513	716.04028	29.725042	-768.97668	607.06647	25.207762	-809.38397	623.31641	48.507156	-579.65143	680.45679	326.93829	-624.63104	640.87463	403.08841	-720.36884	674.32794	205.90767	-659.93335	575.68634	94.859184	-660.45386	671.23651	84.237526	-635.06335	460.55676	1334.5634	-613.35614	687.70831	1524.1053	-713.61237	456.80786	1469.9368	-823.94757	471.97061	1588.01	-659.4754	236.1209	1532.9298	-737.43616
128	0.63	330.36734	1040.2264	-818.35052	596.4184	1031.903	-818.11652	418.28796	1094.0781	-634.71265	513.99371	1093.334	-630.5155	674.19629	781.41534	-724.8075	636.72827	680.87598	-797.25415	657.06201	611.19733	-690.66742	650.35541	525.08191	-696.92834	539.34943	511.34909	-723.10028	271.56079	685.43695	-740.29309	295.11749	759.42358	-822.82544	333.64755	625.21381	-793.83075	297.11487	526.89142	-717.65002	398.30609	516.80396	-746.0719	271.32397	318.06299	-685.53546	272.78085	403.24069	-649.50378	295.67764	224.38039	-620.12866	286.93561	89.874779	-641.10614	372.57657	90.101753	-681.74023	258.44095	29.748878	-851.1778	322.80499	24.137022	-818.0755	337.43503	40.773193	-588.58618	218.80553	27.719437	-768.77881	667.22211	33.414421	-841.37164	716.0188	29.716318	-768.96417	607.0542	25.224215	-809.38306	623.34882	48.470398	-579.6698	680.427	326.83969	-624.72821	640.98517	403.29526	-720.60437	674.32312	205.90793	-659.92828	575.66937	94.846886	-660.46509	671.24066	84.250359	-635.10492	460.52322	1334.5642	-613.3512	687.7132	1524.0928	-713.61499	456.80994	1469.9437	-823.9483	471.90857	1587.9985	-659.43359	236.10141	1532.9506	-737.45154
129	0.635	330.34241	1040.2986	-818.31561	596.38635	1031.9014	-818.04639	418.31757	1094.0778	-634.75006	513.98499	1093.3259	-630.59247	674.17297	781.45575	-724.8053	636.73267	680.87274	-797.26306	657.06659	611.16992	-690.68866	650.3775	525.0871	-696.92511	539.35303	511.38205	-723.13312	271.52652	685.44324	-740.29004	295.09674	759.40662	-822.77545	333.64572	625.21411	-793.83411	297.08307	526.89709	-717.67261	398.24777	516.83063	-745.98883	271.39465	318.08749	-685.58521	272.82385	403.22794	-649.57751	295.6879	224.36507	-620.16107	286.9256	89.885719	-641.10498	372.59729	90.10067	-681.76703	258.4418	29.741875	-851.16156	322.86041	24.127728	-818.07697	337.41739	40.810562	-588.62653	218.81192	27.70158	-768.78015	667.26288	33.419453	-841.38342	716.0401	29.700586	-768.94232	607.49744	24.832607	-809.12341	623.35321	48.524864	-579.65729	680.44946	326.93488	-624.66028	640.93933	403.26913	-720.56799	674.33899	205.89581	-659.98407	575.65662	94.842987	-660.48962	671.23706	84.232925	-635.11652	460.50436	1334.5884	-613.29297	687.68768	1524.0686	-713.66138	456.81229	1469.9713	-823.94733	471.90707	1588.0125	-659.43219	236.06805	1532.9861	-737.45581
